<?xml version="1.0" encoding="utf-8"?>
<!-- Generator: Adobe Illustrator 22.1.0, SVG Export Plug-In . SVG Version: 6.00 Build 0)  -->
<svg version="1.1" id="Layer_1" xmlns="http://www.w3.org/2000/svg" xmlns:xlink="http://www.w3.org/1999/xlink" x="0px" y="0px"
	 viewBox="0 0 128 128" style="enable-background:new 0 0 128 128;" xml:space="preserve">
<style type="text/css">
	.st0{fill:#4BA0AE;}
	.st1{fill:#E9474A;}
	.st2{fill:#DCDBDB;}
</style>
<g>
	<g>
		<path class="st0" d="M111.00641,24.98491c1.38562,15.8509,1.9052,31.73927,1.53098,47.637
			c-0.29456,12.51305-4.43802,23.69939-13.01997,32.98547c-7.94356,8.59529-17.81839,13.50718-29.44534,14.93888
			c-1.94687,0.23972-3.87702,0.2887-5.82362,0.21633c-0.00244-8.48808-0.00477-16.97623-0.0071-25.46437
			c6.22768-0.05975,11.63725-2.18131,16.04791-6.59272c3.78419-3.78483,5.87769-8.46603,6.33907-13.75656
			c0.73324-8.408,0.2858-16.8331,0.08649-25.25522c-0.19556-8.26345-0.90848-16.49343-1.34359-24.74075
			C93.91632,24.96365,102.46136,24.97428,111.00641,24.98491z"/>
		<path class="st1" d="M64.24136,95.29823c0.00233,8.48814,0.00465,16.97629,0.0071,25.46437
			c-16.90912-0.25922-30.22878-7.32311-39.73978-21.28847c-5.76355-8.46284-8.19689-18.02863-8.34873-28.19684
			C15.92939,55.837,16.53446,40.42258,17.7259,25.02913c8.53184-0.00847,17.06366-0.01687,25.59547-0.02529
			c-0.65986,8.81135-1.23301,17.62744-1.46595,26.4625c-0.19003,7.20733-0.29794,14.41953-0.05576,21.62272
			c0.35766,10.63823,6.98397,18.92712,16.9785,21.56738C60.57064,95.12996,62.39729,95.28034,64.24136,95.29823z"/>
		<path class="st2" d="M111.00641,24.98491c-8.54505-0.01063-17.09009-0.02126-25.63517-0.03194
			c-0.41705-4.42209-0.82016-8.84553-1.26091-13.26521c-0.10896-1.09244-0.36022-2.16358-0.32216-3.27945
			c0.02631-0.77091,0.22031-1.14704,1.07574-1.14481c7.84325,0.02045,15.68657,0.01407,23.52987,0.00845
			c0.60218-0.00043,0.98605,0.13742,1.0346,0.85547c0.2469,3.65112,0.82492,7.27157,0.96704,10.93561
			C110.47224,21.04362,111.0641,22.9827,111.00641,24.98491z"/>
		<path class="st2" d="M43.32138,25.00385c-8.53181,0.00841-17.06363,0.01682-25.59547,0.02529
			c0.39175-3.99845,0.7882-7.99652,1.17293-11.99572c0.1451-1.50826,0.31491-3.01714,0.37284-4.52959
			c0.03159-0.82458,0.19949-1.24729,1.14444-1.24413c7.78261,0.02595,15.5654,0.02558,23.34801,0.00034
			c0.918-0.00298,1.22414,0.35752,1.14769,1.21737c-0.23138,2.60182-0.42355,5.20729-0.67436,7.80716
			C43.95685,19.19339,43.62879,22.09762,43.32138,25.00385z"/>
	</g>
</g>
<g>
</g>
<g>
</g>
<g>
</g>
<g>
</g>
<g>
</g>
<g>
</g>
</svg>
