<?xml version="1.0" encoding="utf-8"?>
<!-- Generator: Adobe Illustrator 22.1.0, SVG Export Plug-In . SVG Version: 6.00 Build 0)  -->
<svg version="1.1" id="Layer_1" xmlns="http://www.w3.org/2000/svg" xmlns:xlink="http://www.w3.org/1999/xlink" x="0px" y="0px"
	 viewBox="0 0 128 128" style="enable-background:new 0 0 128 128;" xml:space="preserve">
<style type="text/css">
	.st0{fill:#00A651;}
</style>
<g>
	<g>
		<path class="st0" d="M25.73061,44.8c0.59653,0.28488,0.52968,0.74064,0.33764,1.247
			c-1.26895,3.34587-2.53074,6.69445-3.79894,10.0406c-0.23006,0.60702-0.47896,1.2069-0.78425,1.97354
			c0.94878,0.06571,1.82124,0.1666,2.69502,0.17976c4.11302,0.06193,8.22635,0.10596,12.33968,0.14456
			c4.39627,0.04126,8.79267,0.06893,13.189,0.10417c0.21278,0.00171,0.42545,0.01921,0.67385,0.03106
			c0,3.76596,0,7.49852,0,11.29919c-9.60742,0.10229-19.19672,0.20438-28.88519,0.30752
			c0.10602,0.28667,0.18286,0.50217,0.26508,0.71559c1.2943,3.35983,2.59497,6.71722,3.87779,10.08141
			c0.18452,0.4839,0.34059,0.99342,0.40242,1.50409c0.04021,0.33205-0.11425,0.68768-0.18149,1.03275c-0.17415,0-0.3483,0-0.52245,0
			c-0.24388-0.17549-0.49143-0.34612-0.73111-0.52717c-7.12094-5.379-14.24469-10.7543-21.35752-16.144
			c-1.06632-0.80801-2.08098-1.68419-3.11954-2.52884c0-0.04353,0-0.08707,0-0.13061
			c0.35386-0.31919,0.68818-0.66373,1.06448-0.9538c6.45232-4.97378,12.90346-9.94913,19.37078-14.90335
			c1.56156-1.19621,3.1804-2.31764,4.7729-3.47346C25.46939,44.8,25.6,44.8,25.73061,44.8z"/>
		<path class="st0" d="M102.4,44.8c-0.59653,0.28488-0.52968,0.74064-0.33764,1.247
			c1.26895,3.34587,2.53073,6.69445,3.79893,10.0406c0.23006,0.60702,0.47896,1.2069,0.78425,1.97354
			c-0.94878,0.06571-1.82124,0.1666-2.69501,0.17976c-4.11302,0.06193-8.22635,0.10596-12.33968,0.14456
			c-4.39626,0.04126-8.79267,0.06893-13.189,0.10417c-0.21278,0.00171-0.42545,0.01921-0.67384,0.03106
			c0,3.76596,0,7.49852,0,11.29919c9.60741,0.10229,19.19672,0.20438,28.88519,0.30752
			c-0.10602,0.28667-0.18286,0.50217-0.26508,0.71559c-1.2943,3.35983-2.59496,6.71722-3.87779,10.08141
			c-0.18452,0.4839-0.34059,0.99342-0.40242,1.50409c-0.04021,0.33205,0.11424,0.68768,0.18149,1.03275
			c0.17415,0,0.3483,0,0.52245,0c0.24387-0.17549,0.49142-0.34612,0.7311-0.52717c7.12094-5.379,14.24469-10.7543,21.35752-16.144
			c1.06632-0.80801,2.08098-1.68419,3.11954-2.52884c0-0.04353,0-0.08707,0-0.13061
			c-0.35386-0.31919-0.68818-0.66373-1.06448-0.9538c-6.45232-4.97378-12.90346-9.94913-19.37078-14.90335
			c-1.56155-1.19621-3.1804-2.31764-4.7729-3.47346C102.66122,44.8,102.53061,44.8,102.4,44.8z"/>
		<path class="st0" d="M72.65087,64.12419c0.0144,4.52856-3.60837,8.26086-8.0565,8.30008
			c-4.42917,0.03905-8.27509-3.87553-8.29328-8.44138c-0.01728-4.33783,3.7666-8.03239,8.24647-8.0518
			C69.06924,55.91151,72.63622,59.51802,72.65087,64.12419z"/>
	</g>
</g>
<g>
</g>
<g>
</g>
<g>
</g>
<g>
</g>
<g>
</g>
<g>
</g>
</svg>
