<?xml version="1.0" encoding="utf-8"?>
<!-- Generator: Adobe Illustrator 22.1.0, SVG Export Plug-In . SVG Version: 6.00 Build 0)  -->
<svg version="1.1" id="Layer_1" xmlns="http://www.w3.org/2000/svg" xmlns:xlink="http://www.w3.org/1999/xlink" x="0px" y="0px"
	 viewBox="0 0 128 128" style="enable-background:new 0 0 128 128;" xml:space="preserve">
<style type="text/css">
	.st0{fill:#30439B;stroke:#ED1C24;stroke-width:4;stroke-miterlimit:10;}
	.st1{fill:#30439B;stroke:#ED1C24;stroke-miterlimit:10;}
</style>
<g>
	<g>
		<path class="st0" d="M93.30751,43.94504c-0.06973,17.4606-14.02637,31.24774-31.53484,31.15187
			c-17.57917-0.09627-31.26306-14.07713-31.16566-31.84203c0.09342-17.03906,14.30998-30.81114,31.70033-30.70922
			C79.55972,12.64676,93.37663,26.64159,93.30751,43.94504z"/>
		<path class="st1" d="M46.58039,112.63102c-1.35414,0-2.51751,0-3.84719,0c0-8.9446,0-17.77084,0-26.7401
			c1.30813,0,2.47319,0,3.84719,0C46.58039,94.7082,46.58039,103.53874,46.58039,112.63102z"/>
		<path class="st1" d="M79.55728,85.93599c0,8.92088,0,17.67662,0,26.62267c-1.2851,0-2.43741,0-3.82178,0
			c0-8.76427,0-17.599,0-26.62267C76.90161,85.93599,78.05446,85.93599,79.55728,85.93599z"/>
		<path class="st1" d="M58.5794,93.16405c1.34251,0,2.49643,0,3.81982,0c0,8.89034,0,17.64441,0,26.63569
			c-1.21365,0-2.43856,0-3.81982,0C58.5794,110.93527,58.5794,102.10005,58.5794,93.16405z"/>
	</g>
</g>
<g>
</g>
<g>
</g>
<g>
</g>
<g>
</g>
<g>
</g>
<g>
</g>
</svg>
